<?xml version="1.0" standalone="no"?><!DOCTYPE svg PUBLIC "-//W3C//DTD SVG 1.1//EN" "http://www.w3.org/Graphics/SVG/1.1/DTD/svg11.dtd"><svg class="icon" height="512" viewBox="0 0 1024 1024" version="1.1" xmlns="http://www.w3.org/2000/svg"><path d="M488.029091 566.458182 118.923636 197.585455C131.956364 190.138182 147.083636 186.181818 162.909091 186.181818l698.181818 0c20.48 0 39.563636 6.749091 54.923636 18.152727L553.658182 566.458182c-8.610909 8.843636-20.247273 13.498182-32.814545 13.498182S496.64 575.301818 488.029091 566.458182z" fill="#1296db" /><path d="M383.301818 527.592727 98.909091 811.752727C80.989091 794.996364 69.818182 771.025455 69.818182 744.727273L69.818182 279.272727c0-18.618182 5.585455-35.84 14.894545-50.269091L383.301818 527.592727z" fill="#1296db" /><path d="M896 830.836364C885.294545 835.490909 873.425455 837.818182 861.090909 837.818182L162.909091 837.818182c-7.447273 0-14.661818-0.930909-21.643636-2.56l274.850909-274.850909 38.865455 38.865455c18.152727 18.152727 41.890909 27.229091 65.861818 27.229091 23.970909 0 47.709091-9.076364 65.861818-27.229091l38.865455-38.865455L896 830.836364z" fill="#1296db" /><path d="M954.181818 279.272727l0 465.454545c0 21.876364-7.68 42.123636-20.48 57.949091L658.618182 527.592727l286.72-286.952727C951.156364 252.276364 954.181818 265.541818 954.181818 279.272727z" fill="#1296db" /></svg>